Coordinates
version=1
nRows=12
nColumns=24
inDegrees=yes

Units are S.I. units (second, meters, Newtons, ...)
Angles are in degrees.

endheader
time	pelvis_tilt	pelvis_list	pelvis_rotation	pelvis_tx	pelvis_ty	pelvis_tz	hip_flexion_r	hip_adduction_r	hip_rotation_r	knee_angle_r	ankle_angle_r	subtalar_angle_r	mtp_angle_r	hip_flexion_l	hip_adduction_l	hip_rotation_l	knee_angle_l	ankle_angle_l	subtalar_angle_l	mtp_angle_l	lumbar_extension	lumbar_bending	lumbar_rotation
      5.95000000	      5.55933014	     -4.76722206	      1.59629788	     -1.60521275	      0.94548502	      0.24788458	     16.77458952	      6.52889053	     -5.05068082	    -45.78141921	      2.89156373	    -15.52301675	      0.00000000	     -5.30694645	      0.85283806	      0.30199993	     -6.95108068	      9.82665641	     -7.40241252	      0.00000000	    -24.07385886	      6.99697664	     -0.94464459
      5.96000000	      5.42672538	     -4.75201919	      1.87642404	     -1.59687444	      0.94500038	      0.24764748	     17.12230205	      6.60433699	     -5.10828244	    -43.22966031	      3.03072519	    -15.28646287	      0.00000000	     -5.85473144	      0.83488515	      0.50953538	     -6.67470489	     10.19546010	     -7.26839631	      0.00000000	    -23.97103719	      7.10256778	     -1.42355611
      5.97000000	      5.32351609	     -4.69060201	      2.13065746	     -1.58847627	      0.94440967	      0.24745909	     17.35675854	      6.62771075	     -5.15857300	    -40.52350306	      3.16973618	    -14.84813952	      0.00000000	     -6.44720159	      0.86619799	      0.73228710	     -6.39360510	     10.57046304	     -7.15013133	      0.00000000	    -23.91113250	      7.14782645	     -1.89962191
      5.98000000	      5.20154837	     -4.59702213	      2.35876357	     -1.57999615	      0.94364197	      0.24732152	     17.54048398	      6.60850485	     -5.21835558	    -37.69898393	      3.35580801	    -14.17557806	      0.00000000	     -7.02852870	      0.93075463	      0.95528961	     -6.11351767	     10.93662803	     -7.08074856	      0.00000000	    -23.83177688	      7.14294603	     -2.34611232
      5.99000000	      5.06487555	     -4.47123871	      2.54341246	     -1.57140783	      0.94270753	      0.24725449	     17.68034663	      6.55371988	     -5.26532759	    -34.79695450	      3.66815254	    -13.13812475	      0.00000000	     -7.60755140	      1.02985901	      1.15140684	     -5.83439989	     11.28071277	     -7.05915878	      0.00000000	    -23.72882750	      7.08334804	     -2.74510596
      6.00000000	      4.94192151	     -4.29882310	      2.70996033	     -1.56273265	      0.94165554	      0.24723889	     17.75106701	      6.45993581	     -5.25724632	    -31.83894745	      3.94189685	    -11.87773103	      0.00000000	     -8.20352402	      1.17352461	      1.38082548	     -5.58116093	     11.65802965	     -7.01581954	      0.00000000	    -23.64589436	      6.95264014	     -3.13837996
      6.01000000	      4.81528342	     -4.10447929	      2.83820115	     -1.55392364	      0.94046218	      0.24728752	     17.78552312	      6.34919296	     -5.20697385	    -28.86750301	      4.28310273	    -10.30160299	      0.00000000	     -8.81533120	      1.33778451	      1.56720178	     -5.31512101	     12.04685100	     -6.97239836	      0.00000000	    -23.54066193	      6.77889300	     -3.48319645
      6.02000000	      4.64080320	     -3.86665311	      2.91670510	     -1.54506168	      0.93907424	      0.24741640	     17.85429447	      6.20923961	     -5.04549433	    -25.93253812	      4.68757134	     -8.42620664	      0.00000000	     -9.34506324	      1.55202858	      1.69069610	     -5.12935851	     12.42475297	     -6.93404407	      0.00000000	    -23.38748093	      6.53151528	     -3.76388848
      6.03000000	      4.49524682	     -3.60628049	      2.99370241	     -1.53609948	      0.93760871	      0.24757688	     17.86093253	      6.05760797	     -4.79984689	    -23.01758937	      4.98102300	     -6.57622176	      0.00000000	     -9.90953403	      1.78072198	      1.81901440	     -4.95368130	     12.83337930	     -6.84517806	      0.00000000	    -23.26303947	      6.24540523	     -4.04170196
      6.04000000	      4.39963663	     -3.33306856	      3.07267046	     -1.52704186	      0.93610450	      0.24776027	     17.78531450	      5.90731982	     -4.43599402	    -20.13752503	      5.17125842	     -4.85146575	      0.00000000	    -10.52820736	      2.01288556	      1.94365728	     -4.79171345	     13.22946643	     -6.73196014	      0.00000000	    -23.19430339	      5.93990272	     -4.32282642
      6.05000000	      4.27452160	     -3.03734425	      3.14696373	     -1.51792552	      0.93445678	      0.24795688	     17.73969237	      5.72713908	     -4.01162579	    -17.35360348	      5.33977675	     -3.20089940	      0.00000000	    -11.08690078	      2.26781498	      2.05990789	     -4.69613696	     13.65248845	     -6.60998744	      0.00000000	    -23.09038802	      5.60256293	     -4.58355921
      6.06000000	      4.15873308	     -2.73277672	      3.23256594	     -1.50874212	      0.93273722	      0.24815842	     17.67313400	      5.53253008	     -3.51483689	    -14.66265781	      5.42806729	     -1.82190435	      0.00000000	    -11.64027785	      2.52537927	      2.19680279	     -4.63938638	     14.07787534	     -6.49129770	      0.00000000	    -23.00133549	      5.25127794	     -4.85232523
